<svg width="1024" height="1024" viewBox="0 0 1024 1024" fill="none" xmlns="http://www.w3.org/2000/svg">
<circle cx="512" cy="512" r="512" fill="white"/>
<path d="M335.415 737.84C329.117 737.84 325.968 735.053 325.968 729.48C325.968 727.25 326.523 724.835 327.635 722.234L474.346 373.331C476.569 367.757 478.977 364.042 481.571 362.184C484.164 359.955 487.869 358.84 492.685 358.84H523.25C528.437 358.84 532.142 359.955 534.365 362.184C536.958 364.042 539.366 367.757 541.589 373.331L688.301 722.234C689.412 724.835 689.968 727.25 689.968 729.48C689.968 735.053 686.819 737.84 680.52 737.84H632.172C627.356 737.84 623.836 737.282 621.614 736.168C619.761 734.681 617.909 731.895 616.056 727.807L584.38 649.778H431L399.879 727.807C398.027 731.895 395.989 734.681 393.766 736.168C391.914 737.282 388.579 737.84 383.763 737.84H335.415ZM566.597 597.944L507.69 451.918L448.783 597.944H566.597Z" fill="black"/>
<path d="M793.91 436.094C767.806 304.261 651.533 204.84 511.968 204.84C401.113 204.84 305.081 267.634 257.128 359.469C141.788 371.882 51.9678 469.426 51.9678 587.965C51.9678 714.932 154.936 817.84 281.968 817.84H780.301C886.134 817.84 971.968 732.058 971.968 626.277C971.968 525.132 893.303 443.182 793.91 436.094ZM780.301 741.215H281.968C197.408 741.215 128.634 672.482 128.634 587.965C128.634 509.501 187.403 444.025 265.293 435.673L306.079 431.267L325.055 394.908C361.623 324.95 433.273 281.465 511.968 281.465C612.281 281.465 699.227 352.764 718.7 450.959L730.085 508.351L788.466 512.528C848.379 516.78 895.301 566.778 895.301 626.277C895.301 689.646 843.702 741.215 780.301 741.215Z" fill="black"/>
</svg>
