<svg width="930" height="729" viewBox="0 0 930 729" fill="none" xmlns="http://www.w3.org/2000/svg">
<path d="M216.098 160.296C220.917 155.476 18.4892 150.657 23.3089 160.296C28.1286 169.936 95.6046 285.609 100.424 280.789C105.244 275.969 211.278 165.116 216.098 160.296Z" fill="white" stroke="white"/>
<path d="M235.176 135.574H23.1086C18.2888 135.574 172.52 -4.19789 177.339 0.621844C182.159 5.44158 239.996 135.574 235.176 135.574Z" fill="white" stroke="white"/>
<path d="M4.11478 362.068C-0.704924 362.068 -0.704932 169.279 4.11478 174.099C8.9345 178.918 61.9514 275.313 61.9514 280.132C61.9514 284.952 8.93449 362.067 4.11478 362.068Z" fill="white" stroke="white"/>
<path d="M182.444 511.39C187.264 511.39 90.8697 308.962 86.05 313.782C81.2303 318.601 4.11482 376.438 8.93454 381.258C13.7543 386.077 177.625 511.39 182.444 511.39Z" fill="white" stroke="white"/>
<path d="M351.134 516.209C355.954 516.209 346.314 405.356 346.314 400.536C346.314 395.717 245.1 516.209 249.92 516.209H351.134Z" fill="white" stroke="white"/>
<path d="M442.707 728.277C444.232 728.464 382.556 541.801 365.592 535.488C348.627 529.175 245.099 545.128 249.918 554.767C254.738 564.407 442.707 728.277 442.707 728.277Z" fill="white" stroke="white"/>
<path d="M437.889 439.094C437.889 434.274 375.233 400.536 365.593 395.717C355.954 390.897 375.233 496.931 380.053 496.931C384.872 496.931 437.889 443.914 437.889 439.094Z" fill="white"/>
<path d="M437.889 439.094C437.889 434.274 375.233 400.536 365.593 395.717C355.954 390.897 375.233 496.931 380.053 496.931C384.872 496.931 437.889 443.914 437.889 439.094Z" fill="white"/>
<path d="M437.889 439.094C437.889 434.274 375.233 400.536 365.593 395.717C355.954 390.897 375.233 496.931 380.053 496.931C384.872 496.931 437.889 443.914 437.889 439.094Z" stroke="white"/>
<path d="M427.778 236.666C427.778 231.846 369.942 366.798 369.942 371.618C369.942 376.438 451.877 429.455 456.697 429.455C461.516 429.455 427.778 241.486 427.778 236.666Z" fill="white" stroke="white"/>
<path d="M211.363 24.5986C211.363 19.7789 394.512 174.01 394.512 178.829C394.512 183.649 264.379 140.272 259.56 135.452C254.74 130.632 211.363 29.4183 211.363 24.5986Z" fill="white" stroke="white"/>
<path d="M243.998 150.025C247.716 145.319 327.036 342.7 328.134 346.706C329.233 350.713 182.444 222.207 182.099 218.196C181.754 214.185 240.281 154.731 243.998 150.025Z" fill="white" stroke="white"/>
<path d="M355.954 342.985C355.954 347.804 274.019 159.836 274.019 155.016C274.019 150.196 418.61 208.033 418.61 212.852C418.61 217.672 355.954 338.165 355.954 342.985Z" fill="white" stroke="white"/>
<path d="M163.165 400.536C163.165 390.897 322.216 386.077 327.036 390.897C331.855 395.717 216.182 521.029 211.363 521.029C206.543 521.029 163.165 410.176 163.165 400.536Z" fill="white" stroke="white"/>
<path d="M386.077 521.029C386.077 516.209 448.733 453.553 463.193 453.553C477.652 453.553 540.308 516.209 540.308 521.029C540.308 525.849 468.012 723.457 463.193 723.457C458.373 723.457 386.077 525.849 386.077 521.029Z" fill="white" stroke="white"/>
<path d="M713.902 160.296C709.083 155.476 911.511 150.657 906.691 160.296C901.871 169.936 834.395 285.609 829.576 280.789C824.756 275.969 718.722 165.116 713.902 160.296Z" fill="white" stroke="white"/>
<path d="M694.824 135.574H906.891C911.711 135.574 757.48 -4.19789 752.661 0.621844C747.841 5.44158 690.004 135.574 694.824 135.574Z" fill="white" stroke="white"/>
<path d="M925.885 362.068C930.705 362.068 930.705 169.279 925.885 174.099C921.065 178.918 868.049 275.313 868.049 280.132C868.049 284.952 921.065 362.067 925.885 362.068Z" fill="white" stroke="white"/>
<path d="M747.556 511.39C742.736 511.39 839.13 308.962 843.95 313.782C848.77 318.601 925.885 376.438 921.065 381.258C916.246 386.077 752.375 511.39 747.556 511.39Z" fill="white" stroke="white"/>
<path d="M578.866 516.209C574.046 516.209 583.685 405.356 583.685 400.536C583.685 395.717 684.899 516.209 680.08 516.209H578.866Z" fill="white" stroke="white"/>
<path d="M487.293 728.277C485.768 728.464 547.444 541.801 564.408 535.488C581.373 529.175 684.901 545.128 680.082 554.767C675.262 564.407 487.293 728.277 487.293 728.277Z" fill="white" stroke="white"/>
<path d="M492.111 439.094C492.111 434.274 554.767 400.536 564.407 395.717C574.046 390.897 554.767 496.931 549.947 496.931C545.128 496.931 492.111 443.914 492.111 439.094Z" fill="white"/>
<path d="M492.111 439.094C492.111 434.274 554.767 400.536 564.407 395.717C574.046 390.897 554.767 496.931 549.947 496.931C545.128 496.931 492.111 443.914 492.111 439.094Z" fill="white"/>
<path d="M492.111 439.094C492.111 434.274 554.767 400.536 564.407 395.717C574.046 390.897 554.767 496.931 549.947 496.931C545.128 496.931 492.111 443.914 492.111 439.094Z" stroke="white"/>
<path d="M502.222 236.666C502.222 231.846 560.058 366.798 560.058 371.618C560.058 376.438 478.123 429.455 473.303 429.455C468.484 429.455 502.222 241.486 502.222 236.666Z" fill="white" stroke="white"/>
<path d="M718.637 24.5986C718.637 19.7789 535.488 174.01 535.488 178.829C535.488 183.649 665.621 140.272 670.44 135.452C675.26 130.632 718.637 29.4183 718.637 24.5986Z" fill="white" stroke="white"/>
<path d="M686.002 150.025C682.284 145.319 602.964 342.7 601.866 346.706C600.767 350.713 747.556 222.207 747.901 218.196C748.246 214.185 689.719 154.731 686.002 150.025Z" fill="white" stroke="white"/>
<path d="M574.046 342.985C574.046 347.804 655.981 159.836 655.981 155.016C655.981 150.196 511.39 208.033 511.39 212.852C511.39 217.672 574.046 338.165 574.046 342.985Z" fill="white" stroke="white"/>
<path d="M766.835 400.536C766.835 390.897 607.784 386.077 602.964 390.897C598.145 395.717 713.818 521.029 718.637 521.029C723.457 521.029 766.835 410.176 766.835 400.536Z" fill="white" stroke="white"/>
</svg>
