<svg width="153" height="107" viewBox="0 0 153 107" fill="none" xmlns="http://www.w3.org/2000/svg">
<g filter="url(#filter0_d_6_2)">
<rect x="4" width="145" height="99" rx="13" fill="black" fill-opacity="0.87" shape-rendering="crispEdges"/>
<rect x="8.25" y="4.25" width="136.5" height="90.5" rx="8.75" stroke="white" stroke-width="8.5" shape-rendering="crispEdges"/>
</g>
<path d="M18.8 29.16C18.0213 29.16 17.344 29.016 16.768 28.728C16.192 28.4293 15.744 28.0187 15.424 27.496C15.1147 26.9627 14.96 26.344 14.96 25.64V23.56C14.96 22.856 15.1147 22.2427 15.424 21.72C15.744 21.1867 16.192 20.776 16.768 20.488C17.344 20.1893 18.0213 20.04 18.8 20.04C19.5893 20.04 20.2667 20.1893 20.832 20.488C21.408 20.776 21.8507 21.1867 22.16 21.72C22.48 22.2427 22.64 22.856 22.64 23.56V25.64C22.64 26.344 22.48 26.9627 22.16 27.496C21.8507 28.0187 21.408 28.4293 20.832 28.728C20.2667 29.016 19.5893 29.16 18.8 29.16ZM18.8 27.08C19.2693 27.08 19.6267 26.9573 19.872 26.712C20.1173 26.456 20.24 26.0987 20.24 25.64V23.56C20.24 23.0907 20.1173 22.7333 19.872 22.488C19.6267 22.2427 19.2693 22.12 18.8 22.12C18.3413 22.12 17.984 22.2427 17.728 22.488C17.4827 22.7333 17.36 23.0907 17.36 23.56V25.64C17.36 26.0987 17.4827 26.456 17.728 26.712C17.984 26.9573 18.3413 27.08 18.8 27.08ZM28.5378 29.16C27.7591 29.16 27.0764 29.016 26.4898 28.728C25.9031 28.4293 25.4498 28.0187 25.1298 27.496C24.8098 26.9627 24.6497 26.344 24.6497 25.64V23.56C24.6497 22.8453 24.8098 22.2267 25.1298 21.704C25.4498 21.1813 25.9031 20.776 26.4898 20.488C27.0764 20.1893 27.7591 20.04 28.5378 20.04C29.7004 20.04 30.6284 20.3333 31.3218 20.92C32.0151 21.5067 32.3831 22.3067 32.4258 23.32H30.0898C30.0578 22.9467 29.8978 22.6533 29.6098 22.44C29.3324 22.2267 28.9751 22.12 28.5378 22.12C28.0578 22.12 27.6898 22.2427 27.4338 22.488C27.1778 22.7333 27.0498 23.0907 27.0498 23.56V25.64C27.0498 26.0987 27.1778 26.456 27.4338 26.712C27.6898 26.9573 28.0578 27.08 28.5378 27.08C28.9751 27.08 29.3324 26.9787 29.6098 26.776C29.8978 26.5627 30.0578 26.264 30.0898 25.88H32.4258C32.3831 26.8933 32.0151 27.6933 31.3218 28.28C30.6284 28.8667 29.7004 29.16 28.5378 29.16ZM38.9795 29.16C38.3928 29.16 37.8915 29.0107 37.4755 28.712C37.0595 28.4027 36.7555 27.9707 36.5635 27.416V29H34.2435V17.32H36.6435V19.72L36.5795 21.736C36.7715 21.192 37.0702 20.776 37.4755 20.488C37.8915 20.1893 38.3928 20.04 38.9795 20.04C39.8328 20.04 40.5208 20.3547 41.0435 20.984C41.5662 21.6027 41.8275 22.4347 41.8275 23.48V25.72C41.8275 26.7653 41.5662 27.6027 41.0435 28.232C40.5208 28.8507 39.8328 29.16 38.9795 29.16ZM38.0515 27.08C38.4888 27.08 38.8248 26.9573 39.0595 26.712C39.3048 26.456 39.4275 26.0987 39.4275 25.64V23.56C39.4275 23.0907 39.3048 22.7333 39.0595 22.488C38.8248 22.2427 38.4888 22.12 38.0515 22.12C37.5928 22.12 37.2408 22.2533 36.9955 22.52C36.7608 22.776 36.6435 23.1493 36.6435 23.64V25.56C36.6435 26.0507 36.7608 26.4293 36.9955 26.696C37.2408 26.952 37.5928 27.08 38.0515 27.08ZM47.0052 31.24V29.128C45.9386 29.0427 45.0906 28.7013 44.4613 28.104C43.8426 27.5067 43.5333 26.7387 43.5333 25.8H45.9333C45.9333 26.0987 46.0293 26.3547 46.2213 26.568C46.4133 26.7813 46.6746 26.9307 47.0052 27.016V24.216L46.8293 24.168C45.8373 23.9333 45.0639 23.5013 44.5093 22.872C43.9653 22.232 43.6933 21.4533 43.6933 20.536C43.6933 19.5867 43.9866 18.8133 44.5733 18.216C45.1706 17.6187 45.9813 17.2773 47.0052 17.192V15.08H48.0453V17.176C49.0906 17.2613 49.9173 17.5973 50.5253 18.184C51.1333 18.76 51.4373 19.512 51.4373 20.44H49.0373C49.0373 19.8213 48.7066 19.4373 48.0453 19.288V21.992L48.4773 22.088C49.5119 22.3227 50.2959 22.7493 50.8293 23.368C51.3626 23.976 51.6293 24.7547 51.6293 25.704C51.6293 26.6747 51.3039 27.4693 50.6533 28.088C50.0133 28.7067 49.1439 29.0587 48.0453 29.144V31.24H47.0052ZM46.0933 20.44C46.0933 21.08 46.3973 21.512 47.0052 21.736V19.288C46.3973 19.4373 46.0933 19.8213 46.0933 20.44ZM48.0453 27.048C48.4186 26.9947 48.7066 26.8613 48.9093 26.648C49.1226 26.4347 49.2293 26.1573 49.2293 25.816C49.2293 25.4853 49.1226 25.1973 48.9093 24.952C48.7066 24.7067 48.4186 24.536 48.0453 24.44V27.048ZM53.431 29V17.32H55.831V20.2L55.751 21.784C55.8897 21.2507 56.167 20.8293 56.583 20.52C57.0097 20.2 57.5217 20.04 58.119 20.04C58.9723 20.04 59.655 20.3387 60.167 20.936C60.6897 21.5333 60.951 22.328 60.951 23.32V29H58.551V23.56C58.551 23.1013 58.4283 22.7493 58.183 22.504C57.9483 22.248 57.6177 22.12 57.191 22.12C56.7643 22.12 56.4283 22.248 56.183 22.504C55.9483 22.7493 55.831 23.1013 55.831 23.56V29H53.431ZM65.6328 29.16C64.7581 29.16 64.0648 28.9093 63.5528 28.408C63.0408 27.896 62.7848 27.2293 62.7848 26.408C62.7848 25.5227 63.0994 24.824 63.7288 24.312C64.3581 23.8 65.2434 23.544 66.3848 23.544H68.1128V22.984C68.1128 22.6533 67.9954 22.3973 67.7608 22.216C67.5368 22.024 67.2114 21.928 66.7848 21.928C66.3794 21.928 66.0541 22.008 65.8088 22.168C65.5741 22.328 65.4461 22.5627 65.4248 22.872H63.1528C63.1848 22.008 63.5261 21.32 64.1768 20.808C64.8274 20.296 65.7074 20.04 66.8168 20.04C67.9794 20.04 68.8861 20.3067 69.5368 20.84C70.1874 21.3733 70.5128 22.12 70.5128 23.08V29H68.1928V27.48C68.0861 28.0027 67.8034 28.4133 67.3448 28.712C66.8968 29.0107 66.3261 29.16 65.6328 29.16ZM66.4808 27.24C66.9821 27.24 67.3768 27.1173 67.6648 26.872C67.9634 26.616 68.1128 26.2853 68.1128 25.88V24.984H66.4328C66.0061 24.984 65.6754 25.0907 65.4408 25.304C65.2168 25.5067 65.1048 25.7733 65.1048 26.104C65.1048 26.4347 65.2221 26.7067 65.4568 26.92C65.7021 27.1333 66.0434 27.24 66.4808 27.24ZM74.9225 29.16C74.1438 29.16 73.4665 29.016 72.8905 28.728C72.3145 28.4293 71.8665 28.0187 71.5465 27.496C71.2372 26.9627 71.0825 26.344 71.0825 25.64V23.56C71.0825 22.856 71.2372 22.2427 71.5465 21.72C71.8665 21.1867 72.3145 20.776 72.8905 20.488C73.4665 20.1893 74.1438 20.04 74.9225 20.04C75.7118 20.04 76.3892 20.1893 76.9545 20.488C77.5305 20.776 77.9732 21.1867 78.2825 21.72C78.6025 22.2427 78.7625 22.856 78.7625 23.56V25.64C78.7625 26.344 78.6025 26.9627 78.2825 27.496C77.9732 28.0187 77.5305 28.4293 76.9545 28.728C76.3892 29.016 75.7118 29.16 74.9225 29.16ZM74.9225 27.08C75.3918 27.08 75.7492 26.9573 75.9945 26.712C76.2398 26.456 76.3625 26.0987 76.3625 25.64V23.56C76.3625 23.0907 76.2398 22.7333 75.9945 22.488C75.7492 22.2427 75.3918 22.12 74.9225 22.12C74.4638 22.12 74.1065 22.2427 73.8505 22.488C73.6052 22.7333 73.4825 23.0907 73.4825 23.56V25.64C73.4825 26.0987 73.6052 26.456 73.8505 26.712C74.1065 26.9573 74.4638 27.08 74.9225 27.08ZM80.8522 29V17.32H83.2522V23.528H84.4682L86.3082 20.2H88.9482L86.5002 24.504L88.9962 29H86.3082L84.4522 25.544H83.2522V29H80.8522ZM94.11 29.16C93.3313 29.16 92.654 29.016 92.078 28.728C91.502 28.4293 91.054 28.0187 90.734 27.496C90.4247 26.9627 90.27 26.344 90.27 25.64V23.56C90.27 22.856 90.4247 22.2427 90.734 21.72C91.054 21.1867 91.502 20.776 92.078 20.488C92.654 20.1893 93.3313 20.04 94.11 20.04C94.8993 20.04 95.5767 20.1893 96.142 20.488C96.718 20.776 97.1607 21.1867 97.47 21.72C97.79 22.2427 97.95 22.856 97.95 23.56V25.64C97.95 26.344 97.79 26.9627 97.47 27.496C97.1607 28.0187 96.718 28.4293 96.142 28.728C95.5767 29.016 94.8993 29.16 94.11 29.16ZM94.11 27.08C94.5793 27.08 94.9367 26.9573 95.182 26.712C95.4273 26.456 95.55 26.0987 95.55 25.64V23.56C95.55 23.0907 95.4273 22.7333 95.182 22.488C94.9367 22.2427 94.5793 22.12 94.11 22.12C93.6513 22.12 93.294 22.2427 93.038 22.488C92.7927 22.7333 92.67 23.0907 92.67 23.56V25.64C92.67 26.0987 92.7927 26.456 93.038 26.712C93.294 26.9573 93.6513 27.08 94.11 27.08ZM103.704 22.92C103.224 22.92 102.834 22.7867 102.536 22.52C102.248 22.2533 102.104 21.9067 102.104 21.48C102.104 21.0427 102.248 20.696 102.536 20.44C102.834 20.1733 103.224 20.04 103.704 20.04C104.184 20.04 104.568 20.1733 104.856 20.44C105.154 20.696 105.304 21.0427 105.304 21.48C105.304 21.9067 105.154 22.2533 104.856 22.52C104.568 22.7867 104.184 22.92 103.704 22.92ZM103.704 29.16C103.224 29.16 102.834 29.0267 102.536 28.76C102.248 28.4933 102.104 28.1467 102.104 27.72C102.104 27.2827 102.248 26.936 102.536 26.68C102.834 26.4133 103.224 26.28 103.704 26.28C104.184 26.28 104.568 26.4133 104.856 26.68C105.154 26.936 105.304 27.2827 105.304 27.72C105.304 28.1467 105.154 28.4933 104.856 28.76C104.568 29.0267 104.184 29.16 103.704 29.16ZM115.211 24.92V23.56C115.211 22.8773 115.435 22.3333 115.883 21.928C116.342 21.5227 116.945 21.32 117.691 21.32C118.15 21.32 118.529 21.3947 118.827 21.544C119.137 21.6933 119.387 21.88 119.579 22.104C119.782 22.328 119.953 22.552 120.091 22.776C120.241 23 120.39 23.1867 120.539 23.336C120.699 23.4853 120.886 23.56 121.099 23.56C121.441 23.56 121.611 23.3733 121.611 23V21.8H123.531V23.16C123.531 23.8427 123.307 24.3867 122.859 24.792C122.411 25.1973 121.809 25.4 121.051 25.4C120.593 25.4 120.209 25.3253 119.899 25.176C119.601 25.0267 119.35 24.84 119.147 24.616C118.955 24.392 118.785 24.168 118.635 23.944C118.497 23.72 118.347 23.5333 118.187 23.384C118.038 23.2347 117.857 23.16 117.643 23.16C117.302 23.16 117.131 23.3467 117.131 23.72V24.92H115.211ZM123.205 30.76L128.725 15.72H131.205L125.685 30.76H123.205Z" fill="white"/>
<g filter="url(#filter1_d_6_2)">
<mask id="path-4-outside-1_6_2" maskUnits="userSpaceOnUse" x="75" y="32" width="66" height="66" fill="black">
<rect fill="white" x="75" y="32" width="66" height="66"/>
<path d="M94.2857 97H76V33H94.2857V60.4286H121.714V33H140V97H121.714V69.5714H94.2857V97Z"/>
</mask>
<path d="M94.2857 97H76V33H94.2857V60.4286H121.714V33H140V97H121.714V69.5714H94.2857V97Z" fill="white"/>
<path d="M94.2857 97V98H95.2857V97H94.2857ZM76 97H75V98H76V97ZM76 33V32H75V33H76ZM94.2857 33H95.2857V32H94.2857V33ZM94.2857 60.4286H93.2857V61.4286H94.2857V60.4286ZM121.714 60.4286V61.4286H122.714V60.4286H121.714ZM121.714 33V32H120.714V33H121.714ZM140 33H141V32H140V33ZM140 97V98H141V97H140ZM121.714 97H120.714V98H121.714V97ZM121.714 69.5714H122.714V68.5714H121.714V69.5714ZM94.2857 69.5714V68.5714H93.2857V69.5714H94.2857ZM94.2857 97V96H76V97V98H94.2857V97ZM76 97H77V33H76H75V97H76ZM76 33V34H94.2857V33V32H76V33ZM94.2857 33H93.2857V60.4286H94.2857H95.2857V33H94.2857ZM94.2857 60.4286V61.4286H121.714V60.4286V59.4286H94.2857V60.4286ZM121.714 60.4286H122.714V33H121.714H120.714V60.4286H121.714ZM121.714 33V34H140V33V32H121.714V33ZM140 33H139V97H140H141V33H140ZM140 97V96H121.714V97V98H140V97ZM121.714 97H122.714V69.5714H121.714H120.714V97H121.714ZM121.714 69.5714V68.5714H94.2857V69.5714V70.5714H121.714V69.5714ZM94.2857 69.5714H93.2857V97H94.2857H95.2857V69.5714H94.2857Z" fill="black" mask="url(#path-4-outside-1_6_2)"/>
</g>
<defs>
<filter id="filter0_d_6_2" x="0" y="0" width="153" height="107" filterUnits="userSpaceOnUse" color-interpolation-filters="sRGB">
<feFlood flood-opacity="0" result="BackgroundImageFix"/>
<feColorMatrix in="SourceAlpha" type="matrix" values="0 0 0 0 0 0 0 0 0 0 0 0 0 0 0 0 0 0 127 0" result="hardAlpha"/>
<feOffset dy="4"/>
<feGaussianBlur stdDeviation="2"/>
<feComposite in2="hardAlpha" operator="out"/>
<feColorMatrix type="matrix" values="0 0 0 0 0 0 0 0 0 0 0 0 0 0 0 0 0 0 0.25 0"/>
<feBlend mode="normal" in2="BackgroundImageFix" result="effect1_dropShadow_6_2"/>
<feBlend mode="normal" in="SourceGraphic" in2="effect1_dropShadow_6_2" result="shape"/>
</filter>
<filter id="filter1_d_6_2" x="71" y="32" width="74" height="74" filterUnits="userSpaceOnUse" color-interpolation-filters="sRGB">
<feFlood flood-opacity="0" result="BackgroundImageFix"/>
<feColorMatrix in="SourceAlpha" type="matrix" values="0 0 0 0 0 0 0 0 0 0 0 0 0 0 0 0 0 0 127 0" result="hardAlpha"/>
<feOffset dy="4"/>
<feGaussianBlur stdDeviation="2"/>
<feComposite in2="hardAlpha" operator="out"/>
<feColorMatrix type="matrix" values="0 0 0 0 0 0 0 0 0 0 0 0 0 0 0 0 0 0 0.25 0"/>
<feBlend mode="normal" in2="BackgroundImageFix" result="effect1_dropShadow_6_2"/>
<feBlend mode="normal" in="SourceGraphic" in2="effect1_dropShadow_6_2" result="shape"/>
</filter>
</defs>
</svg>
