<svg width="207" height="214" viewBox="0 0 207 214" fill="none" xmlns="http://www.w3.org/2000/svg">
<path d="M31 90.5L58 38" stroke="white" stroke-width="8"/>
<path d="M122 119.5C125.376 117.341 75.0174 33.2787 73.5354 34.0246" stroke="white" stroke-width="8"/>
<path d="M123 108.121H38" stroke="white" stroke-width="8"/>
<mask id="path-4-inside-1_1_42" fill="white">
<path d="M174 30L72.1776 183.19L174 30Z"/>
</mask>
<path d="M174 30L72.1776 183.19L174 30Z" fill="#00FFFF"/>
<path d="M174 30L173.167 29.4464L71.3448 182.637L72.1776 183.19L73.0104 183.744L174.833 30.5536L174 30Z" fill="white" mask="url(#path-4-inside-1_1_42)"/>
<path d="M174 30L72.1776 183.19" stroke="white" stroke-width="8"/>
<path d="M26.5 118.5L59.5001 180.5" stroke="white" stroke-width="8"/>
<path d="M116.5 113.5L173 178.5" stroke="white" stroke-width="8"/>
<path d="M169 183L36 116.5" stroke="white" stroke-width="8"/>
<path d="M37 98.4404L168 32.5" stroke="white" stroke-width="8"/>
<path d="M67 36.5C75.5604 36.5 82.5 29.5604 82.5 21C82.5 12.4396 75.5604 5.5 67 5.5C58.4396 5.5 51.5 12.4396 51.5 21C51.5 29.5604 58.4396 36.5 67 36.5Z" stroke="white" stroke-width="11"/>
<path d="M186 39.5C194.56 39.5 201.5 32.5604 201.5 24C201.5 15.4396 194.56 8.5 186 8.5C177.44 8.5 170.5 15.4396 170.5 24C170.5 32.5604 177.44 39.5 186 39.5Z" stroke="white" stroke-width="11"/>
<path d="M21 123.5C29.5604 123.5 36.5 116.561 36.5 108C36.5 99.44 29.5604 92.5004 21 92.5004C12.4396 92.5004 5.5 99.44 5.5 108C5.5 116.561 12.4396 123.5 21 123.5Z" stroke="white" stroke-width="11"/>
<path d="M67 208.5C75.5604 208.5 82.5 201.561 82.5 193C82.5 184.44 75.5604 177.5 67 177.5C58.4396 177.5 51.5 184.44 51.5 193C51.5 201.561 58.4396 208.5 67 208.5Z" stroke="white" stroke-width="11"/>
<path d="M186 208.5C194.56 208.5 201.5 201.561 201.5 193C201.5 184.44 194.56 177.5 186 177.5C177.44 177.5 170.5 184.44 170.5 193C170.5 201.561 177.44 208.5 186 208.5Z" stroke="white" stroke-width="11"/>
<path d="M120 130C132.15 130 142 120.151 142 108C142 95.8501 132.15 86.0004 120 86.0004C107.85 86.0004 98 95.8501 98 108C98 120.151 107.85 130 120 130Z" fill="#BEA3D8"/>
</svg>
