<svg width="482" height="548" viewBox="0 0 482 548" fill="none" xmlns="http://www.w3.org/2000/svg">
<path d="M251.091 526.7C246.647 516.084 262.364 495.681 256.724 477.873C251.091 459.093 213.531 445.947 213.531 430.924" stroke="white" stroke-width="23"/>
<path d="M207.897 218.712C207.897 209.713 202.054 166.183 170.338 124.814C135.87 79.8561 73.1459 36.4294 14.4652 15.8911C7.69549 131.826 11.445 260.86 37.0013 353.927C68.1596 467.394 187.239 539.846 241.7 536.09" stroke="white" stroke-width="23"/>
<path d="M239.822 536.09C294.284 539.846 413.363 467.394 444.522 353.927C470.078 260.86 473.827 131.826 467.058 15.8911C408.377 36.4294 345.652 79.8561 311.185 124.814C279.469 166.183 273.626 209.713 273.626 218.712C273.626 252.516 273.626 312.611 273.626 340.781C273.626 380.218 206.44 382.096 206.44 333.269" stroke="white" stroke-width="23"/>
<path d="M166.582 429.046C185.361 430.924 211.876 426.117 232.311 415.9C260.48 401.815 290.528 429.046 307.43 429.046" stroke="white" stroke-width="23"/>
<path d="M115.339 202.845C130.385 203.873 143.386 207.745 152.211 212.785C161.606 218.151 163.782 223.189 163.599 225.86C163.417 228.532 160.575 233.226 150.537 237.263C141.109 241.055 127.701 243.121 112.656 242.092C97.6106 241.063 84.6097 237.192 75.785 232.152C66.3903 226.787 64.2139 221.749 64.3964 219.077C64.5791 216.406 67.4207 211.711 77.4586 207.674C86.8872 203.882 100.294 201.816 115.339 202.845Z" fill="white" stroke="white" stroke-width="17"/>
<path d="M366.091 202.845C351.046 203.873 338.044 207.745 329.22 212.785C319.825 218.151 317.649 223.189 317.831 225.86C318.014 228.532 320.856 233.226 330.893 237.263C340.322 241.055 353.729 243.121 368.775 242.092C383.82 241.063 396.821 237.192 405.646 232.152C415.04 226.787 417.217 221.749 417.034 219.077C416.851 216.406 414.01 211.711 403.972 207.674C394.543 203.882 381.137 201.816 366.091 202.845Z" fill="white" stroke="white" stroke-width="17"/>
</svg>
